<svg width="1042" height="722" viewBox="0 0 1042 722" fill="none" xmlns="http://www.w3.org/2000/svg">
<path fill-rule="evenodd" clip-rule="evenodd" d="M1042 722L0 722L6.31192e-05 -9.10945e-05L1042 0L1042 722ZM82.0001 1.99992L82.0001 79.9999L160 79.9999L160 1.99992L82.0001 1.99992ZM80.0001 81.9999L2.00006 81.9999L2.00005 160L80 160L80.0001 81.9999ZM82.0001 81.9999L82 160L160 160L160 81.9999L82.0001 81.9999ZM80.0001 1.99992L2.00006 1.99991L2.00006 79.9999L80.0001 79.9999L80.0001 1.99992ZM2.00004 240L2.00005 162L80 162L80 240L2.00004 240ZM82 240L82 162L160 162L160 240L82 240ZM80 242L2.00004 242L2.00004 320L80 320L80 242ZM82 242L82 320L160 320L160 242L82 242ZM2.00003 400L2.00003 322L80 322L80 400L2.00003 400ZM82 400L82 322L160 322L160 400L82 400ZM80 402L2.00003 402L2.00002 480L80 480L80 402ZM82 402L82 480L160 480L160 402L82 402ZM2.00001 560L2.00002 482L80 482L80 560L2.00001 560ZM82 560L82 482L160 482L160 560L82 560ZM80 562L2.00001 562L2.00001 640L80 640L80 562ZM82 562L82 640L160 640L160 562L82 562ZM2 720L2.00001 642L80 642L80 720L2 720ZM82 720L82 642L160 642L160 720L82 720ZM162 160L162 81.9999L240 81.9999L240 160L162 160ZM162 79.9999L162 1.99992L240 1.99993L240 79.9999L162 79.9999ZM162 162L162 240L240 240L240 162L162 162ZM162 320L162 242L240 242L240 320L162 320ZM162 322L162 400L240 400L240 322L162 322ZM162 480L162 402L240 402L240 480L162 480ZM162 482L162 560L240 560L240 482L162 482ZM162 640L162 562L240 562L240 640L162 640ZM162 642L240 642L240 720L162 720L162 642ZM242 1.99993L242 79.9999L320 79.9999L320 1.99994L242 1.99993ZM242 81.9999L242 160L320 160L320 81.9999L242 81.9999ZM242 240L242 162L320 162L320 240L242 240ZM242 242L242 320L320 320L320 242L242 242ZM242 400L242 322L320 322L320 400L242 400ZM242 402L242 480L320 480L320 402L242 402ZM242 560L242 482L320 482L320 560L242 560ZM242 562L242 640L320 640L320 562L242 562ZM242 720L242 642L320 642L320 720L242 720ZM322 160L322 81.9999L400 81.9999L400 160L322 160ZM322 79.9999L322 1.99994L400 1.99994L400 79.9999L322 79.9999ZM322 162L322 240L400 240L400 162L322 162ZM322 320L322 242L400 242L400 320L322 320ZM322 322L322 400L400 400L400 322L322 322ZM322 480L322 402L400 402L400 480L322 480ZM322 482L322 560L400 560L400 482L322 482ZM322 640L322 562L400 562L400 640L322 640ZM322 642L400 642L400 720L322 720L322 642ZM402 1.99994L402 79.9999L480 80L480 1.99995L402 1.99994ZM402 81.9999L402 160L480 160L480 82L402 81.9999ZM402 240L402 162L480 162L480 240L402 240ZM402 242L402 320L480 320L480 242L402 242ZM402 400L402 322L480 322L480 400L402 400ZM402 402L402 480L480 480L480 402L402 402ZM402 560L402 482L480 482L480 560L402 560ZM402 562L402 640L480 640L480 562L402 562ZM402 720L402 642L480 642L480 720L402 720ZM482 160L482 82L560 82L560 160L482 160ZM482 80L482 1.99995L560 1.99996L560 80L482 80ZM482 162L482 240L560 240L560 162L482 162ZM482 320L482 242L560 242L560 320L482 320ZM482 322L482 400L560 400L560 322L482 322ZM482 480L482 402L560 402L560 480L482 480ZM482 482L482 560L560 560L560 482L482 482ZM482 640L482 562L560 562L560 640L482 640ZM482 642L560 642L560 720L482 720L482 642ZM562 1.99996L562 80L640 80L640 1.99996L562 1.99996ZM562 82L562 160L640 160L640 82L562 82ZM562 240L562 162L640 162L640 240L562 240ZM562 242L562 320L640 320L640 242L562 242ZM562 400L562 322L640 322L640 400L562 400ZM562 402L562 480L640 480L640 402L562 402ZM562 560L562 482L640 482L640 560L562 560ZM562 562L562 640L640 640L640 562L562 562ZM562 720L562 642L640 642L640 720L562 720ZM642 160L642 82L720 82L720 160L642 160ZM642 80L642 1.99997L720 1.99997L720 80L642 80ZM642 162L642 240L720 240L720 162L642 162ZM642 320L642 242L720 242L720 320L642 320ZM642 322L642 400L720 400L720 322L642 322ZM642 480L642 402L720 402L720 480L642 480ZM642 482L642 560L720 560L720 482L642 482ZM642 640L642 562L720 562L720 640L642 640ZM642 642L720 642L720 720L642 720L642 642ZM722 1.99997L722 80L800 80L800 1.99998L722 1.99997ZM722 82L722 160L800 160L800 82L722 82ZM722 240L722 162L800 162L800 240L722 240ZM722 242L722 320L800 320L800 242L722 242ZM722 400L722 322L800 322L800 400L722 400ZM722 402L722 480L800 480L800 402L722 402ZM722 560L722 482L800 482L800 560L722 560ZM722 562L722 640L800 640L800 562L722 562ZM722 720L722 642L800 642L800 720L722 720ZM802 160L802 82L880 82L880 160L802 160ZM802 80L802 1.99998L880 1.99999L880 80L802 80ZM802 162L802 240L880 240L880 162L802 162ZM802 320L802 242L880 242L880 320L802 320ZM802 322L802 400L880 400L880 322L802 322ZM802 480L802 402L880 402L880 480L802 480ZM802 482L802 560L880 560L880 482L802 482ZM802 640L802 562L880 562L880 640L802 640ZM802 642L880 642L880 720L802 720L802 642ZM882 1.99999L882 80L960 80L960 1.99999L882 1.99999ZM882 82L882 160L960 160L960 82L882 82ZM882 240L882 162L960 162L960 240L882 240ZM882 242L882 320L960 320L960 242L882 242ZM882 400L882 322L960 322L960 400L882 400ZM882 402L882 480L960 480L960 402L882 402ZM882 560L882 482L960 482L960 560L882 560ZM882 562L882 640L960 640L960 562L882 562ZM882 720L882 642L960 642L960 720L882 720ZM962 160L962 82L1040 82L1040 160L962 160ZM962 80L962 1.99999L1040 2L1040 80L962 80ZM962 162L962 240L1040 240L1040 162L962 162ZM962 320L962 242L1040 242L1040 320L962 320ZM962 322L962 400L1040 400L1040 322L962 322ZM962 480L962 402L1040 402L1040 480L962 480ZM962 482L962 560L1040 560L1040 482L962 482ZM962 640L962 562L1040 562L1040 640L962 640ZM962 642L1040 642L1040 720L962 720L962 642Z" fill="url(#paint0_linear_235_534)"/>
<defs>
<linearGradient id="paint0_linear_235_534" x1="310" y1="184" x2="-1.23414e-05" y2="712" gradientUnits="userSpaceOnUse">
<stop stop-color="#D9D9D9" stop-opacity="0"/>
<stop offset="1" stop-color="#D9D9D9"/>
</linearGradient>
</defs>
</svg>
