<svg width="1042" height="721" viewBox="0 0 1042 721" fill="none" xmlns="http://www.w3.org/2000/svg">
<path fill-rule="evenodd" clip-rule="evenodd" d="M0 -1H1042V721H0V-1ZM960 719V641H882V719H960ZM962 639H1040V561H962V639ZM960 639V561H882V639H960ZM962 719H1040V641H962V719ZM1040 481V559H962V481H1040ZM960 481V559H882V481H960ZM962 479H1040V401H962V479ZM960 479V401H882V479H960ZM1040 321V399H962V321H1040ZM960 321V399H882V321H960ZM962 319H1040V241H962V319ZM960 319V241H882V319H960ZM1040 161V239H962V161H1040ZM960 161V239H882V161H960ZM962 159H1040V81H962V159ZM960 159V81H882V159H960ZM1040 1V79H962V1H1040ZM960 1V79H882V1H960ZM880 561V639H802V561H880ZM880 641V719H802V641H880ZM880 559V481H802V559H880ZM880 401V479H802V401H880ZM880 399V321H802V399H880ZM880 241V319H802V241H880ZM880 239V161H802V239H880ZM880 81V159H802V81H880ZM880 79H802V1H880V79ZM800 719V641H722V719H800ZM800 639V561H722V639H800ZM800 481V559H722V481H800ZM800 479V401H722V479H800ZM800 321V399H722V321H800ZM800 319V241H722V319H800ZM800 161V239H722V161H800ZM800 159V81H722V159H800ZM800 1V79H722V1H800ZM720 561V639H642V561H720ZM720 641V719H642V641H720ZM720 559V481H642V559H720ZM720 401V479H642V401H720ZM720 399V321H642V399H720ZM720 241V319H642V241H720ZM720 239V161H642V239H720ZM720 81V159H642V81H720ZM720 79H642V1H720V79ZM640 719V641H562V719H640ZM640 639V561H562V639H640ZM640 481V559H562V481H640ZM640 479V401H562V479H640ZM640 321V399H562V321H640ZM640 319V241H562V319H640ZM640 161V239H562V161H640ZM640 159V81H562V159H640ZM640 1V79H562V1H640ZM560 561V639H482V561H560ZM560 641V719H482V641H560ZM560 559V481H482V559H560ZM560 401V479H482V401H560ZM560 399V321H482V399H560ZM560 241V319H482V241H560ZM560 239V161H482V239H560ZM560 81V159H482V81H560ZM560 79H482V1H560V79ZM480 719V641H402V719H480ZM480 639V561H402V639H480ZM480 481V559H402V481H480ZM480 479V401H402V479H480ZM480 321V399H402V321H480ZM480 319V241H402V319H480ZM480 161V239H402V161H480ZM480 159V81H402V159H480ZM480 1V79H402V1H480ZM400 561V639H322V561H400ZM400 641V719H322V641H400ZM400 559V481H322V559H400ZM400 401V479H322V401H400ZM400 399V321H322V399H400ZM400 241V319H322V241H400ZM400 239V161H322V239H400ZM400 81V159H322V81H400ZM400 79H322V1H400V79ZM320 719V641H242V719H320ZM320 639V561H242V639H320ZM320 481V559H242V481H320ZM320 479V401H242V479H320ZM320 321V399H242V321H320ZM320 319V241H242V319H320ZM320 161V239H242V161H320ZM320 159V81H242V159H320ZM320 1V79H242V1H320ZM240 561V639H162V561H240ZM240 641V719H162V641H240ZM240 559V481H162V559H240ZM240 401V479H162V401H240ZM240 399V321H162V399H240ZM240 241V319H162V241H240ZM240 239V161H162V239H240ZM240 81V159H162V81H240ZM240 79H162V1H240V79ZM160 719V641H82V719H160ZM160 639V561H82V639H160ZM160 481V559H82V481H160ZM160 479V401H82V479H160ZM160 321V399H82V321H160ZM160 319V241H82V319H160ZM160 161V239H82V161H160ZM160 159V81H82V159H160ZM160 1V79H82V1H160ZM80 561V639H2V561H80ZM80 641V719H2V641H80ZM80 559V481H2V559H80ZM80 401V479H2V401H80ZM80 399V321H2V399H80ZM80 241V319H2V241H80ZM80 239V161H2V239H80ZM80 81V159H2V81H80ZM80 79H2V1H80V79Z" fill="url(#paint0_linear_214_698)"/>
<defs>
<linearGradient id="paint0_linear_214_698" x1="732" y1="537" x2="1042" y2="9" gradientUnits="userSpaceOnUse">
<stop stop-color="#D9D9D9" stop-opacity="0"/>
<stop offset="1" stop-color="#D9D9D9"/>
</linearGradient>
</defs>
</svg>
